<!-- derived-from: omk.theme.v1/night-city@a2cd88dd38e2 -->
<svg xmlns="http://www.w3.org/2000/svg" width="1200" height="520" viewBox="0 0 1200 520" role="img" aria-labelledby="title desc">
  <title id="title">OMK parallel subagents</title>
  <desc id="desc">OMK root control fans out scoped subagent lanes, collects evidence, then synthesizes and verifies the result.</desc>
  <metadata>omk.asset.v1 name=omk-parallel-subagents packaged=yes source=themes/night-city.theme.json via scripts/assets-build.mjs text=ascii</metadata>
  <defs>
    <linearGradient id="bg" x1="0" x2="1" y1="0" y2="1">
      <stop offset="0" stop-color="#070B14"/>
      <stop offset="0.48" stop-color="#101826"/>
      <stop offset="1" stop-color="#070B14"/>
    </linearGradient>
    <linearGradient id="neon" x1="0" x2="1">
      <stop offset="0" stop-color="#00D6FF"/>
      <stop offset="0.5" stop-color="#00FFC2"/>
      <stop offset="1" stop-color="#FF47B2"/>
    </linearGradient>
    <filter id="glow" x="-25%" y="-25%" width="150%" height="150%">
      <feGaussianBlur stdDeviation="3" result="blur"/>
      <feMerge>
        <feMergeNode in="blur"/>
        <feMergeNode in="SourceGraphic"/>
      </feMerge>
    </filter>
    <marker id="arrowC" markerWidth="12" markerHeight="12" refX="10" refY="5" orient="auto">
      <path d="M0,0 L0,10 L11,5 z" fill="#00D6FF"/>
    </marker>
    <marker id="arrowM" markerWidth="12" markerHeight="12" refX="10" refY="5" orient="auto">
      <path d="M0,0 L0,10 L11,5 z" fill="#FF47B2"/>
    </marker>
  </defs>
  <rect width="1200" height="520" rx="36" fill="url(#bg)"/>
  <rect x="26" y="26" width="1148" height="468" rx="26" fill="none" stroke="url(#neon)" stroke-width="3" filter="url(#glow)"/>
  <g opacity="0.36" stroke="#758FA8" stroke-width="1">
    <path d="M64 142 H1136 M64 190 H1136 M64 238 H1136 M64 286 H1136 M64 334 H1136 M64 382 H1136"/>
    <path d="M112 118 V420 M208 118 V420 M304 118 V420 M400 118 V420 M496 118 V420 M592 118 V420 M688 118 V420 M784 118 V420 M880 118 V420 M976 118 V420 M1072 118 V420"/>
  </g>
  <g font-family="ui-monospace, SFMono-Regular, Menlo, Consolas, monospace" font-size="12" fill="#00FFC2" opacity="0.24">
    <text x="76" y="164">0101 1010 0011</text>
    <text x="970" y="154">1011 0100 1110</text>
    <text x="994" y="376">0010 1111 0101</text>
    <text x="108" y="404">1100 0011 1001</text>
  </g>

  <text x="60" y="74" fill="#E8F8FF" font-family="ui-monospace, SFMono-Regular, Menlo, Consolas, monospace" font-size="34" font-weight="800">OMK//PARALLEL SUBAGENTS</text>
  <text x="60" y="112" fill="#9DB3C7" font-family="ui-monospace, SFMono-Regular, Menlo, Consolas, monospace" font-size="18">root orchestrator fans out scoped lanes, then merges evidence</text>

  <g font-family="ui-monospace, SFMono-Regular, Menlo, Consolas, monospace">
    <rect x="60" y="184" width="218" height="168" rx="20" fill="#101826" stroke="#00D6FF" stroke-width="3" filter="url(#glow)"/>
    <text x="88" y="226" fill="#00D6FF" font-size="24" font-weight="800">ROOT CONTROL</text>
    <text x="88" y="258" fill="#E8F8FF" font-size="16">goal - DAG - budget</text>
    <text x="88" y="286" fill="#9DB3C7" font-size="15">scope every lane</text>
    <text x="88" y="314" fill="#9DB3C7" font-size="15">own synthesis</text>

    <rect x="352" y="138" width="218" height="104" rx="16" fill="#101826" stroke="#00D6FF" stroke-width="2"/>
    <text x="376" y="171" fill="#00D6FF" font-size="20" font-weight="800">EXPLORER</text>
    <text x="376" y="199" fill="#E8F8FF" font-size="15">read-only map</text>
    <text x="376" y="222" fill="#9DB3C7" font-size="13">MCP: fs + git</text>

    <rect x="630" y="138" width="218" height="104" rx="16" fill="#101826" stroke="#9D4EDD" stroke-width="2"/>
    <text x="654" y="171" fill="#9D4EDD" font-size="20" font-weight="800">PLANNER</text>
    <text x="654" y="199" fill="#E8F8FF" font-size="15">topology + risk</text>
    <text x="654" y="222" fill="#9DB3C7" font-size="13">AUTH: advisory</text>

    <rect x="352" y="280" width="218" height="104" rx="16" fill="#101826" stroke="#00FFC2" stroke-width="2"/>
    <text x="376" y="313" fill="#00FFC2" font-size="20" font-weight="800">CODER</text>
    <text x="376" y="341" fill="#E8F8FF" font-size="15">disjoint files</text>
    <text x="376" y="364" fill="#9DB3C7" font-size="13">AUTH: scoped write</text>

    <rect x="630" y="280" width="218" height="104" rx="16" fill="#101826" stroke="#FFB000" stroke-width="2"/>
    <text x="654" y="313" fill="#FFB000" font-size="20" font-weight="800">QA + REVIEW</text>
    <text x="654" y="341" fill="#E8F8FF" font-size="15">parallel gates</text>
    <text x="654" y="364" fill="#9DB3C7" font-size="13">AUTH: read + test</text>

    <rect x="928" y="168" width="214" height="198" rx="22" fill="#101826" stroke="#FF47B2" stroke-width="3" filter="url(#glow)"/>
    <text x="958" y="211" fill="#FF47B2" font-size="23" font-weight="800">SYNTHESIS</text>
    <text x="958" y="244" fill="#E8F8FF" font-size="16">merge findings</text>
    <text x="958" y="272" fill="#E8F8FF" font-size="16">verify evidence</text>
    <text x="958" y="300" fill="#E8F8FF" font-size="16">replay inspect</text>
    <rect x="958" y="322" width="146" height="22" rx="11" fill="#070B14" stroke="#00FFC2"/>
    <text x="981" y="338" fill="#00FFC2" font-size="13" font-weight="800">DONE NEEDS PROOF</text>
  </g>

  <g fill="none" stroke-width="3" stroke-linecap="round" stroke-linejoin="round" opacity="0.92">
    <path d="M278 250 C314 250 316 190 346 190" stroke="#00D6FF" marker-end="url(#arrowC)"/>
    <path d="M278 250 C314 250 316 332 346 332" stroke="#00FFC2" marker-end="url(#arrowC)"/>
    <path d="M570 190 H624" stroke="#9D4EDD" marker-end="url(#arrowC)"/>
    <path d="M570 332 H624" stroke="#FFB000" marker-end="url(#arrowC)"/>
    <path d="M848 190 C888 190 888 236 922 236" stroke="#FF47B2" marker-end="url(#arrowM)"/>
    <path d="M848 332 C888 332 888 296 922 296" stroke="#FF47B2" marker-end="url(#arrowM)"/>
  </g>

  <g font-family="ui-monospace, SFMono-Regular, Menlo, Consolas, monospace" font-size="14" font-weight="800" text-anchor="middle">
    <rect x="378" y="424" width="444" height="32" rx="16" fill="#070B14" stroke="#00D6FF"/>
    <text x="600" y="445" fill="#00D6FF">OMK_WORKERS caps fanout; every lane returns artifacts</text>
  </g>
  <text x="600" y="482" fill="#9DB3C7" font-family="ui-monospace, SFMono-Regular, Menlo, Consolas, monospace" font-size="17" text-anchor="middle">Workers execute. OMK controls route, scope, evidence, and final authority.</text>
</svg>
