<!-- derived-from: omk.theme.v1/night-city@a0a6a1b0712f -->
<svg xmlns="http://www.w3.org/2000/svg" width="1200" height="520" viewBox="0 0 1200 520" role="img" aria-labelledby="title desc">
  <title id="title">OMK init to control loop</title>
  <desc id="desc">The OMK setup path creates scoped project files, runs doctor checks, then enters the evidence-gated control loop.</desc>
  <metadata>omk.asset.v1 name=omk-init-control-loop packaged=yes source=themes/night-city.theme.json via scripts/assets-build.mjs text=ascii</metadata>
  <defs>
    <linearGradient id="bg" x1="0" x2="1" y1="0" y2="1">
      <stop offset="0" stop-color="#070B14"/>
      <stop offset="0.46" stop-color="#101826"/>
      <stop offset="1" stop-color="#070B14"/>
    </linearGradient>
    <linearGradient id="rail" x1="0" x2="1">
      <stop offset="0" stop-color="#00D6FF"/>
      <stop offset="0.46" stop-color="#00FFC2"/>
      <stop offset="1" stop-color="#FF47B2"/>
    </linearGradient>
    <filter id="glow" x="-25%" y="-25%" width="150%" height="150%">
      <feGaussianBlur stdDeviation="3" result="blur"/>
      <feMerge>
        <feMergeNode in="blur"/>
        <feMergeNode in="SourceGraphic"/>
      </feMerge>
    </filter>
    <marker id="arrow" markerWidth="12" markerHeight="12" refX="10" refY="5" orient="auto">
      <path d="M0,0 L0,10 L11,5 z" fill="#00D6FF"/>
    </marker>
    <marker id="arrowM" markerWidth="12" markerHeight="12" refX="10" refY="5" orient="auto">
      <path d="M0,0 L0,10 L11,5 z" fill="#FF47B2"/>
    </marker>
  </defs>
  <rect width="1200" height="520" rx="36" fill="url(#bg)"/>
  <rect x="26" y="26" width="1148" height="468" rx="26" fill="none" stroke="url(#rail)" stroke-width="3" filter="url(#glow)"/>
  <g opacity="0.28" stroke="#758FA8" stroke-width="1">
    <path d="M70 144 H1130 M70 206 H1130 M70 268 H1130 M70 330 H1130 M70 392 H1130"/>
    <path d="M150 128 V430 M270 128 V430 M390 128 V430 M510 128 V430 M630 128 V430 M750 128 V430 M870 128 V430 M990 128 V430 M1110 128 V430"/>
  </g>

  <text x="60" y="74" fill="#E8F8FF" font-family="ui-monospace, SFMono-Regular, Menlo, Consolas, monospace" font-size="34" font-weight="800">OMK//INIT TO CONTROL LOOP</text>
  <text x="60" y="112" fill="#9DB3C7" font-family="ui-monospace, SFMono-Regular, Menlo, Consolas, monospace" font-size="18">install once; every run is scoped, measured, replayable</text>

  <g font-family="ui-monospace, SFMono-Regular, Menlo, Consolas, monospace" text-anchor="middle">
    <path d="M92 220 H1108" stroke="url(#rail)" stroke-width="8" stroke-linecap="round"/>

    <g transform="translate(116 220)">
      <circle r="46" fill="#070B14" stroke="#00D6FF" stroke-width="4" filter="url(#glow)"/>
      <text y="-6" fill="#00D6FF" font-size="17" font-weight="800">npm i</text>
      <text y="18" fill="#E8F8FF" font-size="13">package</text>
    </g>
    <g transform="translate(270 220)">
      <circle r="46" fill="#070B14" stroke="#9D4EDD" stroke-width="4" filter="url(#glow)"/>
      <text y="-6" fill="#9D4EDD" font-size="17" font-weight="800">omk init</text>
      <text y="18" fill="#E8F8FF" font-size="13">scaffold</text>
    </g>
    <g transform="translate(424 220)">
      <circle r="46" fill="#070B14" stroke="#FFB000" stroke-width="4" filter="url(#glow)"/>
      <text y="-6" fill="#FFB000" font-size="17" font-weight="800">doctor</text>
      <text y="18" fill="#E8F8FF" font-size="13">preflight</text>
    </g>
    <g transform="translate(578 220)">
      <circle r="46" fill="#070B14" stroke="#00FFC2" stroke-width="4" filter="url(#glow)"/>
      <text y="-6" fill="#00FFC2" font-size="17" font-weight="800">chat/run</text>
      <text y="18" fill="#E8F8FF" font-size="13">goal input</text>
    </g>
    <g transform="translate(732 220)">
      <circle r="46" fill="#070B14" stroke="#00D6FF" stroke-width="4" filter="url(#glow)"/>
      <text y="-6" fill="#00D6FF" font-size="17" font-weight="800">DAG</text>
      <text y="18" fill="#E8F8FF" font-size="13">compile</text>
    </g>
    <g transform="translate(886 220)">
      <circle r="46" fill="#070B14" stroke="#FF47B2" stroke-width="4" filter="url(#glow)"/>
      <text y="-6" fill="#FF47B2" font-size="17" font-weight="800">router</text>
      <text y="18" fill="#E8F8FF" font-size="13">workers</text>
    </g>
    <g transform="translate(1040 220)">
      <circle r="46" fill="#070B14" stroke="#00FFC2" stroke-width="4" filter="url(#glow)"/>
      <text y="-6" fill="#00FFC2" font-size="17" font-weight="800">verify</text>
      <text y="18" fill="#E8F8FF" font-size="13">replay</text>
    </g>
  </g>

  <g fill="none" stroke-width="3" stroke-linecap="round" stroke-linejoin="round">
    <path d="M162 220 H218" stroke="#00D6FF" marker-end="url(#arrow)"/>
    <path d="M316 220 H372" stroke="#9D4EDD" marker-end="url(#arrow)"/>
    <path d="M470 220 H526" stroke="#FFB000" marker-end="url(#arrow)"/>
    <path d="M624 220 H680" stroke="#00FFC2" marker-end="url(#arrow)"/>
    <path d="M778 220 H834" stroke="#00D6FF" marker-end="url(#arrow)"/>
    <path d="M932 220 H988" stroke="#FF47B2" marker-end="url(#arrowM)"/>
  </g>

  <g font-family="ui-monospace, SFMono-Regular, Menlo, Consolas, monospace">
    <rect x="76" y="318" width="330" height="124" rx="20" fill="#101826" stroke="#9D4EDD" stroke-width="2"/>
    <text x="106" y="354" fill="#9D4EDD" font-size="20" font-weight="800">INIT WRITES</text>
    <text x="106" y="382" fill="#E8F8FF" font-size="15">AGENTS.md + runtime docs</text>
    <text x="106" y="406" fill="#E8F8FF" font-size="15">.omk/mcp.json + skills</text>
    <text x="106" y="430" fill="#9DB3C7" font-size="14">project-scoped defaults</text>

    <rect x="436" y="318" width="330" height="124" rx="20" fill="#101826" stroke="#00D6FF" stroke-width="2"/>
    <text x="466" y="354" fill="#00D6FF" font-size="20" font-weight="800">CONTROL STATE</text>
    <text x="466" y="382" fill="#E8F8FF" font-size="15">provider route + fallback</text>
    <text x="466" y="406" fill="#E8F8FF" font-size="15">MCP scope + approvals</text>
    <text x="466" y="430" fill="#9DB3C7" font-size="14">timeouts, sandbox, run id</text>

    <rect x="796" y="318" width="330" height="124" rx="20" fill="#101826" stroke="#00FFC2" stroke-width="2"/>
    <text x="826" y="354" fill="#00FFC2" font-size="20" font-weight="800">PROOF SURFACE</text>
    <text x="826" y="382" fill="#E8F8FF" font-size="15">commands, diffs, artifacts</text>
    <text x="826" y="406" fill="#E8F8FF" font-size="15">verify gates + replay logs</text>
    <text x="826" y="430" fill="#9DB3C7" font-size="14">claims require evidence</text>
  </g>

  <g fill="none" stroke-width="3" stroke-linecap="round" stroke-linejoin="round" opacity="0.92">
    <path d="M272 318 C272 278 270 278 270 266" stroke="#9D4EDD" marker-end="url(#arrow)"/>
    <path d="M600 318 C600 282 584 276 584 266" stroke="#00D6FF" marker-end="url(#arrow)"/>
    <path d="M960 318 C1016 292 1038 278 1038 266" stroke="#00FFC2" marker-end="url(#arrow)"/>
    <path d="M1038 442 C1038 482 176 482 176 266" stroke="#FF47B2" stroke-dasharray="10 12" marker-end="url(#arrowM)"/>
  </g>

  <text x="600" y="482" fill="#9DB3C7" font-family="ui-monospace, SFMono-Regular, Menlo, Consolas, monospace" font-size="17" text-anchor="middle">The loop never trusts narration alone: route, execute, collect, verify, replay.</text>
</svg>
