<svg xmlns="http://www.w3.org/2000/svg" width="1600" height="640" viewBox="0 0 1600 640" role="img" aria-labelledby="title desc">
  <title id="title">OMK Freedomd runtime control plane</title>
  <desc id="desc">Local-first multi-provider agent control plane with sovereignty routing, evidence envelopes, degraded fallback, and strict guardrail opt-in.</desc>
  <metadata>omk.asset.v1 name=omk-freedomd-control-plane packaged=yes source=local-svg-render prompt-ready=gpt-image-2.0 text=ascii version=0.80.0</metadata>
  <defs>
    <linearGradient id="bg" x1="0" x2="1" y1="0" y2="1">
      <stop stop-color="#FFF8EF" offset="0"/>
      <stop stop-color="#F8EAD7" offset="0.55"/>
      <stop stop-color="#101826" offset="1"/>
    </linearGradient>
    <linearGradient id="gold" x1="0" x2="1">
      <stop stop-color="#FFD96B" offset="0"/>
      <stop stop-color="#FFC83D" offset="0.55"/>
      <stop stop-color="#F47719" offset="1"/>
    </linearGradient>
    <filter id="shadow" x="-20%" y="-20%" width="140%" height="140%">
      <feDropShadow dx="0" dy="18" stdDeviation="18" flood-color="#3A1F10" flood-opacity="0.18"/>
    </filter>
    <style>
      .title{font:900 82px system-ui,-apple-system,Segoe UI,sans-serif;fill:#2A170D;letter-spacing:-2px}.sub{font:800 30px system-ui,-apple-system,Segoe UI,sans-serif;fill:#5A3219}.mono{font:700 24px ui-monospace,SFMono-Regular,Menlo,monospace;fill:#FFF8EF}.label{font:900 24px system-ui,-apple-system,Segoe UI,sans-serif;fill:#3A1F10}.tiny{font:800 19px system-ui,-apple-system,Segoe UI,sans-serif;fill:#7D6148}.dark{fill:#101826}.cream{fill:#FFFDF8}.stroke{stroke:#D8B58F;stroke-width:3}.edge{stroke:#815029;stroke-width:5;stroke-linecap:round;opacity:.7}.ok{fill:#2F9B4A}.warn{fill:#B35C00}.danger{fill:#E5482D}.info{fill:#536D7A}
    </style>
  </defs>
  <rect width="1600" height="640" rx="0" fill="url(#bg)"/>
  <circle cx="1360" cy="86" r="170" fill="#FFD96B" opacity="0.20"/>
  <circle cx="1510" cy="570" r="260" fill="#9D4EDD" opacity="0.16"/>

  <g transform="translate(92 76)">
    <rect x="0" y="0" width="610" height="490" rx="36" fill="#FFFDF8" filter="url(#shadow)"/>
    <rect x="28" y="28" width="554" height="434" rx="28" fill="#FFF4E6" stroke="#EED9C4" stroke-width="3"/>
    <text x="56" y="108" class="title">Freedomd</text>
    <text x="58" y="158" class="sub">user-sovereign agent runtime</text>
    <g transform="translate(58 212)">
      <rect x="0" y="0" width="488" height="60" rx="18" fill="#101826"/>
      <text x="24" y="39" class="mono">OMK_FREEDOMD_MODE=balanced</text>
    </g>
    <g transform="translate(58 300)">
      <circle cx="24" cy="24" r="18" class="ok"/><text x="60" y="31" class="label">local-first evidence</text>
      <circle cx="24" cy="76" r="18" class="warn"/><text x="60" y="83" class="label">jurisdiction + retention gates</text>
      <circle cx="24" cy="128" r="18" class="info"/><text x="60" y="135" class="label">degraded fallback, never stuck</text>
    </g>
  </g>

  <g transform="translate(800 80)">
    <rect x="0" y="0" width="700" height="486" rx="40" fill="#101826" filter="url(#shadow)"/>
    <text x="42" y="66" class="mono" fill="#FFD96B">runtime graph</text>
    <g transform="translate(70 118)">
      <rect x="0" y="0" width="210" height="86" rx="24" fill="#FFFDF8"/><text x="28" y="38" class="label">Goal</text><text x="28" y="66" class="tiny">DAG + lanes</text>
      <rect x="340" y="0" width="230" height="86" rx="24" fill="#FFFDF8"/><text x="368" y="38" class="label">Provider Score</text><text x="368" y="66" class="tiny">health + sovereignty</text>
      <path d="M220 43 L330 43" class="edge"/>
      <rect x="0" y="170" width="230" height="86" rx="24" fill="#FFFDF8"/><text x="28" y="208" class="label">Retention Gate</text><text x="28" y="236" class="tiny">allow/redact/block</text>
      <rect x="340" y="170" width="230" height="86" rx="24" fill="#FFFDF8"/><text x="368" y="208" class="label">Fallback Plan</text><text x="368" y="236" class="tiny">local/review/replay</text>
      <path d="M455 90 L455 160" class="edge"/>
      <path d="M240 213 L330 213" class="edge"/>
      <path d="M120 92 L120 160" class="edge"/>
      <rect x="118" y="332" width="334" height="78" rx="24" fill="url(#gold)"/><text x="156" y="380" class="label">Evidence Envelope + Replay</text>
      <path d="M120 260 L210 324" class="edge"/><path d="M455 260 L360 324" class="edge"/>
    </g>
  </g>
</svg>
